<?xml version="1.0" standalone="no"?>
<!DOCTYPE svg PUBLIC "-//W3C//DTD SVG 20010904//EN"
 "http://www.w3.org/TR/2001/REC-SVG-20010904/DTD/svg10.dtd">
<svg version="1.0" xmlns="http://www.w3.org/2000/svg"
 width="188.000000pt" height="188.000000pt" viewBox="0 0 188.000000 188.000000"
 preserveAspectRatio="xMidYMid meet">
<metadata>
Created by potrace 1.14, written by Peter Selinger 2001-2017
</metadata>
<g transform="translate(0.000000,188.000000) scale(0.100000,-0.100000)"
fill="#000000" stroke="none">
<path d="M910 1840 c0 -13 -5 -18 -15 -14 -11 5 -15 -1 -15 -25 0 -23 4 -29
15 -25 10 4 15 0 15 -16 0 -11 -3 -19 -7 -17 -21 13 -55 -17 -78 -68 -14 -30
-30 -55 -35 -55 -6 0 -10 -7 -10 -15 0 -20 -9 -19 -33 2 -18 17 -20 16 -51
-17 -26 -29 -39 -35 -71 -35 -22 1 -46 4 -53 9 -14 8 -64 -19 -59 -32 1 -4
-10 -22 -25 -40 -23 -27 -33 -32 -72 -32 l-46 0 0 -45 c0 -43 1 -45 30 -45 28
0 30 -2 19 -21 -15 -28 -5 -88 18 -105 17 -12 16 -13 -9 -14 -16 0 -28 5 -28
10 0 6 -9 10 -20 10 -23 0 -27 -29 -8 -48 9 -9 8 -15 -5 -24 -22 -17 -26 -68
-6 -81 13 -8 11 -18 -18 -71 -59 -109 -77 -185 -77 -326 -1 -133 15 -204 69
-310 131 -259 427 -409 714 -360 242 41 450 218 531 455 31 90 43 230 27 320
-13 74 -53 190 -83 236 -23 37 -24 42 -10 58 22 24 20 51 -6 78 -12 13 -17 23
-11 23 6 0 13 9 16 21 6 24 -18 38 -36 20 -6 -6 -20 -11 -31 -11 -21 1 -21 1
1 19 53 44 63 134 22 192 -13 19 -25 36 -26 38 -1 2 -10 -2 -18 -9 -14 -11
-17 -10 -22 8 -3 12 -11 22 -17 22 -7 0 -22 14 -35 30 -19 27 -26 30 -57 24
-23 -4 -34 -2 -34 6 0 7 -8 9 -19 5 -24 -7 -64 8 -89 35 -16 18 -21 19 -31 6
-10 -12 -16 -11 -37 11 -13 13 -22 28 -19 33 3 5 -3 13 -12 19 -10 5 -16 11
-14 13 2 2 1 13 -3 25 -4 13 -21 26 -43 34 l-37 12 22 17 c25 21 31 66 7 56
-13 -5 -20 5 -16 27 0 4 -12 7 -29 7 -23 0 -30 -4 -30 -20z m-80 -254 c0 -3
-4 -8 -10 -11 -5 -3 -10 -1 -10 4 0 6 5 11 10 11 6 0 10 -2 10 -4z m-41 -50
c12 -14 -4 -26 -35 -26 -12 0 -12 4 -2 20 15 24 22 25 37 6z m335 5 c9 -15
-23 -36 -36 -23 -5 5 -7 15 -4 21 9 13 33 14 40 2z m-161 -18 c-9 -7 -22 -13
-28 -13 -6 0 -19 6 -28 13 -15 10 -11 12 28 12 39 0 43 -2 28 -12z m-256 -27
c-16 -18 -31 -8 -16 10 6 7 15 11 20 8 5 -3 3 -11 -4 -18z m136 -12 c-4 -10
-9 -12 -15 -6 -12 12 -1 35 12 27 5 -3 6 -13 3 -21z m211 18 c2 -4 -2 -16 -10
-27 -13 -18 -14 -18 -14 8 0 25 13 36 24 19z m120 -37 c-4 -8 -11 -15 -16 -15
-6 0 -5 6 2 15 7 8 14 15 16 15 2 0 1 -7 -2 -15z m-84 -29 c0 -3 -4 -8 -10
-11 -5 -3 -10 -1 -10 4 0 6 5 11 10 11 6 0 10 -2 10 -4z m-230 -21 c0 -8 -4
-15 -10 -15 -5 0 -10 7 -10 15 0 8 5 15 10 15 6 0 10 -7 10 -15z m175 -13 c-8
-8 -25 10 -19 20 4 6 9 5 15 -3 4 -7 6 -15 4 -17z m124 -9 c2 -2 -5 -3 -17 -3
-14 0 -22 6 -22 16 0 14 3 15 18 3 9 -7 19 -15 21 -16z m-659 8 c0 -5 -9 -11
-19 -14 -14 -3 -18 -1 -14 9 6 15 33 19 33 5z m225 -1 c3 -5 -1 -10 -10 -10
-9 0 -13 5 -10 10 3 6 8 10 10 10 2 0 7 -4 10 -10z m485 -66 c0 -11 -5 -11
-25 -2 -13 6 -22 14 -20 19 8 12 45 -2 45 -17z m-505 6 c-28 -12 -45 -12 -45
0 0 6 15 10 33 9 27 0 29 -2 12 -9z m-145 -20 c0 -5 -5 -10 -11 -10 -5 0 -7 5
-4 10 3 6 8 10 11 10 2 0 4 -4 4 -10z m80 -6 c0 -2 -14 -11 -31 -20 l-31 -16
18 25 c11 13 25 22 31 20 7 -3 13 -7 13 -9z m641 -15 c10 -20 10 -20 -15 -4
-14 10 -23 21 -20 26 7 12 21 3 35 -22z"/>
</g>
</svg>
